<svg width="512" height="512" viewBox="0 0 512 512" fill="none" xmlns="http://www.w3.org/2000/svg">
  <rect x="64" y="64" width="384" height="384" rx="64" stroke="black" stroke-width="40"/>
  <path d="M300 150H400M350 100V200" stroke="black" stroke-width="40" stroke-linecap="round"/>
  <path d="M150 300L250 400M250 300L150 400" stroke="black" stroke-width="40" stroke-linecap="round"/>
  <path d="M300 330H400M300 380H400" stroke="black" stroke-width="40" stroke-linecap="round"/>
  <rect x="40" y="40" width="160" height="160" rx="20" fill="white" stroke="black" stroke-width="20"/>
  <rect x="70" y="70" width="100" height="100" rx="10" stroke="black" stroke-width="15"/>
  <path d="M90 40V20M120 40V20M150 40V20M40 90H20M40 120H20M40 150H20M90 200V220M120 200V220M150 200V220M200 90H220M200 120H220M200 150H220" stroke="black" stroke-width="15" stroke-linecap="round"/>
</svg>
