<svg width="512" height="512" viewBox="0 0 512 512" fill="none" xmlns="http://www.w3.org/2000/svg">
  <rect x="80" y="80" width="352" height="352" rx="64" stroke="black" stroke-width="32"/>
  <path d="M280 160H352M316 124V196" stroke="black" stroke-width="24" stroke-linecap="round"/>
  <path d="M160 280L232 352M232 280L160 352" stroke="black" stroke-width="24" stroke-linecap="round"/>
  <path d="M280 296H352M280 336H352" stroke="black" stroke-width="24" stroke-linecap="round"/>
  <rect x="60" y="60" width="160" height="160" rx="24" fill="white" stroke="black" stroke-width="16"/>
  <rect x="90" y="90" width="100" height="100" rx="12" stroke="black" stroke-width="12"/>
  <path d="M110 90V60M170 90V60M220 110H250M220 170H250M110 220V250M170 220V250M60 110H30M60 170H30" stroke="black" stroke-width="12" stroke-linecap="round"/>
</svg>
